<svg viewBox="0 0 200 200" fill="none" xmlns="http://www.w3.org/2000/svg">
  <!-- Left brain (blue, logic/structure) -->
  <polygon points="28,22 54,22 108,84 100,100 92,84" fill="#2D5BFF"></polygon>
  <polygon points="28,42 28,68 92,132 100,124 92,116" fill="#2D5BFF"></polygon>
  <polygon points="28,88 28,114 92,178 100,170 100,162" fill="#2D5BFF"></polygon>
  <polygon points="28,134 44,134 100,190 100,178 54,134" fill="#2D5BFF"></polygon>

  <!-- Right brain (cyan, creativity/flow) -->
  <polygon points="172,22 146,22 92,84 100,100 108,84" fill="#00D4FF"></polygon>
  <polygon points="172,42 172,68 108,132 100,124 108,116" fill="#00D4FF"></polygon>
  <polygon points="172,88 172,114 108,178 100,170 100,162" fill="#00D4FF"></polygon>
  <polygon points="172,134 156,134 100,190 100,178 146,134" fill="#00D4FF"></polygon>

  <!-- Center overlap (creates visual cohesion) -->
  <circle cx="100" cy="100" r="16" fill="url(#gradient)" opacity="0.8"></circle>

  <defs>
    <linearGradient id="gradient" x1="0%" y1="0%" x2="100%" y2="0%">
      <stop offset="0%" style="stop-color:#2D5BFF;stop-opacity:1" />
      <stop offset="100%" style="stop-color:#00D4FF;stop-opacity:1" />
    </linearGradient>
  </defs>
</svg>
